<svg width="600" height="600" viewBox="0 0 600 600" fill="none" xmlns="http://www.w3.org/2000/svg">
<mask id="mask0_2_155" style="mask-type:alpha" maskUnits="userSpaceOnUse" x="0" y="0" width="600" height="600">
<rect width="600" height="600" fill="#FFD05C"/>
</mask>
<g mask="url(#mask0_2_155)">
<path d="M51.1243 300.796C-32.1367 294.37 -105.965 225.621 -120.103 143.318C-134.241 61.0147 -88.7043 -27.4867 -14.3461 -65.4936C-6.14026 -69.6879 2.44849 -73.39 11.0362 -77.0915C33.2072 -86.648 55.3706 -96.2012 70.9162 -114.212C88.6656 -134.777 93.965 -161.677 99.3177 -188.848C102.717 -206.102 106.137 -223.465 112.781 -239.385C128.797 -277.761 165.146 -306.941 206.077 -314.281C272.407 -326.175 338.658 -281.37 372.386 -223.031C406.114 -164.691 414.14 -95.4266 419.969 -28.2916C422.199 -2.60992 440.959 18.6886 461.632 34.0881C469.636 40.0498 478.068 45.4453 486.494 50.8369C499.832 59.3723 513.156 67.8977 524.737 78.6432C573.778 124.144 580.122 206.682 542.586 262.056C505.05 317.43 430.157 342.466 365.366 325.811C354.207 322.943 343.37 319 332.533 315.057L332.532 315.056C322.158 311.282 311.783 307.507 301.124 304.674C278.34 298.619 254.644 296.964 231.102 295.734C203.032 294.268 174.875 293.367 146.832 295.275C137.077 295.939 127.326 296.943 117.576 297.946C95.4213 300.226 73.2768 302.505 51.1243 300.796Z" fill="#FF4D50"/>
<path d="M439.884 -27.8709C454.325 3.13896 480.149 28.1897 510.313 44.3235C514.268 46.439 518.476 48.4555 522.961 48.5007C527.446 48.5458 532.262 46.0598 533.512 41.7525C535.304 35.5797 529.483 30.0812 524.458 26.0734C489.938 -1.45839 463.298 -40.9218 458.399 -84.8041C456.517 -101.658 457.826 -118.686 459.137 -135.594L461.185 -162.002C462.834 -183.273 464.469 -204.839 460.512 -225.803C456.556 -246.767 446.273 -267.417 428.576 -279.332C422.943 -283.124 416.264 -286.029 409.525 -285.193C402.619 -284.337 396.654 -279.598 392.801 -273.803C388.948 -268.009 386.92 -261.213 385.196 -254.471C383.933 -249.535 382.798 -244.49 383.024 -239.4C383.395 -231.078 387.331 -223.434 391.161 -215.996C391.416 -215.5 391.67 -215.006 391.923 -214.512C398.586 -201.512 404.454 -188.069 408.711 -174.096C414.92 -153.719 417.665 -132.39 420.403 -111.114C424.092 -82.4521 427.769 -53.8852 439.884 -27.8709Z" fill="#FF4D50"/>
<path d="M38.2188 -197.558L38.2177 -197.54C38.1355 -196.294 38.0534 -195.048 37.9566 -193.806C36.4258 -174.158 31.1001 -154.813 22.3594 -137.15C19.0267 -130.416 14.8976 -123.615 8.33618 -119.954C0.217428 -115.423 -7.36295 -109.929 -14.1949 -103.624C-16.8453 -101.178 -19.4443 -98.5216 -20.8517 -95.2008C-22.2591 -91.88 -22.2452 -87.7341 -19.951 -84.9511C-17.1636 -81.5699 -12.0691 -81.2239 -7.78253 -82.1331C-0.758306 -83.623 5.43313 -87.631 11.4159 -91.6017C31.0486 -104.631 50.6965 -118.375 65.3413 -136.835C79.9862 -155.294 89.1864 -179.367 84.8898 -202.535C83.4062 -210.534 80.1672 -218.508 74.1125 -223.943C68.0579 -229.377 58.7945 -231.702 51.505 -228.088C45.7223 -225.222 42.0538 -219.203 40.3108 -212.988C38.906 -207.979 38.562 -202.764 38.2189 -197.559L38.2188 -197.558Z" fill="#FF4D50"/>
</g>
</svg>
